<?xml version="1.0" standalone="no"?>
<!DOCTYPE svg PUBLIC "-//W3C//DTD SVG 20010904//EN"
 "http://www.w3.org/TR/2001/REC-SVG-20010904/DTD/svg10.dtd">
<svg version="1.0" xmlns="http://www.w3.org/2000/svg"
 width="1492.000000pt" height="1492.000000pt" viewBox="0 0 1492.000000 1492.000000"
 preserveAspectRatio="xMidYMid meet">
<metadata>
Created by potrace 1.11, written by Peter Selinger 2001-2013
</metadata>
<g transform="translate(0.000000,1492.000000) scale(0.100000,-0.100000)"
fill="#000000" stroke="none">
<path d="M7236 14874 c43 -40 47 -47 33 -57 -18 -13 -132 -114 -188 -166 -126
-116 -379 -372 -464 -469 -26 -29 -47 -49 -47 -45 0 4 -8 -4 -18 -18 -9 -15
-36 -48 -60 -75 -70 -80 -75 -86 -127 -149 -28 -33 -52 -62 -55 -65 -9 -9
-185 -233 -216 -275 -16 -22 -31 -42 -34 -45 -12 -11 -231 -319 -255 -358 -6
-10 -37 -57 -70 -107 -32 -49 -64 -99 -70 -110 -17 -31 -49 -79 -55 -85 -4 -3
-10 -12 -13 -20 -4 -8 -17 -32 -30 -52 -12 -21 -41 -70 -64 -109 -24 -40 -43
-76 -43 -80 0 -5 -4 -9 -8 -9 -4 0 -13 -12 -19 -27 -12 -29 -54 -104 -63 -113
-3 -3 -6 -10 -7 -16 -1 -7 -17 -36 -34 -65 -57 -98 -292 -585 -292 -606 0 -7
-4 -13 -8 -13 -3 0 -9 -8 -12 -17 -5 -17 -138 -347 -157 -388 -5 -11 -28 -74
-51 -140 -24 -66 -45 -122 -48 -125 -4 -3 -6 -9 -6 -15 0 -9 -78 -255 -96
-300 -4 -11 -10 -29 -12 -40 -3 -11 -19 -69 -37 -128 -17 -60 -33 -116 -35
-125 -1 -9 -11 -43 -20 -76 -9 -32 -19 -66 -20 -75 -2 -9 -4 -16 -5 -16 -2 0
-5 -14 -13 -55 -3 -14 -13 -54 -22 -90 -9 -36 -18 -72 -20 -80 -4 -24 -18 -95
-20 -100 -1 -3 -5 -23 -10 -45 -10 -54 -16 -78 -19 -90 -1 -5 -6 -32 -10 -60
-4 -27 -12 -63 -16 -80 -5 -16 -11 -48 -14 -70 -2 -22 -7 -49 -10 -60 -5 -18
-9 -43 -20 -130 -2 -16 -8 -52 -12 -80 -4 -27 -8 -62 -8 -77 -1 -16 -3 -28 -6
-28 -3 0 -6 -17 -7 -37 0 -21 -3 -54 -6 -73 -4 -19 -11 -75 -17 -125 -5 -49
-12 -110 -15 -135 -3 -25 -8 -83 -11 -130 -2 -47 -6 -103 -9 -125 -27 -254
-27 -1053 0 -1445 9 -117 15 -197 19 -240 3 -25 8 -75 11 -112 3 -37 8 -77 10
-90 2 -13 6 -52 10 -88 7 -71 11 -104 20 -165 3 -22 8 -62 11 -90 3 -27 8 -61
11 -75 2 -14 6 -38 8 -55 2 -16 6 -43 9 -60 3 -16 8 -48 11 -70 14 -90 66
-381 72 -400 3 -11 7 -29 7 -40 1 -11 4 -24 6 -30 11 -21 4 -58 -10 -61 -8 -2
-31 -6 -50 -10 -19 -3 -43 -10 -52 -15 -10 -5 -18 -7 -18 -3 0 3 -7 1 -15 -6
-8 -7 -15 -10 -15 -7 0 7 -94 -33 -155 -65 -66 -34 -195 -120 -195 -129 0 -5
-5 -9 -10 -9 -9 0 -116 -95 -144 -128 -6 -7 -20 -23 -31 -35 -38 -40 -135
-174 -135 -185 0 -5 -4 -12 -8 -14 -24 -10 -193 -343 -207 -408 -2 -8 -12 -40
-24 -70 -32 -87 -95 -325 -114 -430 -3 -14 -8 -43 -12 -65 -12 -65 -13 -71
-20 -122 -4 -26 -9 -59 -11 -73 -9 -55 -19 -159 -31 -315 -16 -206 -9 -840 12
-1100 14 -180 12 -157 51 -505 9 -76 34 -257 50 -355 3 -22 6 -47 6 -55 0 -8
4 -31 8 -50 5 -19 11 -53 14 -75 3 -22 7 -50 10 -61 2 -12 7 -39 10 -60 6 -37
18 -113 21 -124 1 -3 5 -25 9 -50 5 -25 10 -54 12 -65 3 -11 7 -35 10 -54 3
-18 7 -41 9 -50 14 -67 48 -232 52 -256 2 -16 11 -57 20 -90 8 -33 17 -70 19
-83 5 -34 11 -63 22 -112 6 -25 13 -56 16 -70 46 -209 56 -237 79 -223 5 3 36
7 70 9 97 7 106 10 105 42 -1 26 10 264 17 387 2 33 6 103 9 155 3 52 8 124
11 160 6 66 13 159 20 260 2 30 6 80 9 110 3 30 8 82 11 115 3 33 8 76 10 95
3 19 7 64 11 100 3 36 8 79 10 95 1 17 5 53 8 80 3 28 8 66 11 86 3 19 8 55 9
80 2 24 6 51 9 59 3 8 5 22 5 30 0 20 11 110 16 135 4 20 13 82 22 140 2 17 6
41 9 55 6 30 12 69 20 130 4 25 11 65 16 90 6 25 13 63 15 84 3 22 7 43 9 47
3 4 7 24 10 45 4 22 8 47 11 56 3 10 8 30 11 45 8 44 11 58 13 58 1 0 4 11 5
25 2 14 15 70 30 125 15 55 28 109 31 120 12 58 96 319 120 372 8 17 14 34 14
37 0 3 14 36 30 73 73 164 157 295 229 357 13 12 30 27 37 34 32 31 114 59
166 57 110 -5 131 -18 159 -102 13 -38 24 -71 25 -75 1 -5 3 -10 4 -13 1 -3 3
-9 4 -14 0 -5 4 -13 9 -17 4 -4 7 -16 7 -26 0 -10 4 -26 9 -36 9 -16 23 -51
25 -62 1 -3 6 -18 13 -35 6 -16 25 -66 41 -110 16 -44 33 -89 37 -100 4 -11 9
-24 10 -30 3 -12 169 -434 189 -479 8 -17 29 -67 47 -111 18 -44 37 -84 41
-89 4 -6 8 -16 8 -23 0 -7 16 -45 35 -85 20 -40 36 -75 37 -78 1 -10 19 -53
42 -103 13 -29 37 -81 53 -115 l29 -64 788 0 c731 1 787 -1 785 -16 -1 -9 -1
-518 0 -1129 l1 -1113 283 0 282 1 0 1128 -1 1129 741 1 c407 0 761 0 787 0
46 1 48 2 67 46 11 25 20 48 21 50 0 3 12 25 25 50 14 25 26 47 26 50 0 9 72
177 126 295 14 30 26 60 27 65 2 6 10 28 20 50 10 22 27 65 38 95 11 30 24 60
28 65 3 6 14 30 23 55 9 25 22 59 28 75 7 17 13 32 14 35 1 3 6 16 12 30 6 14
34 88 63 165 29 77 56 149 60 160 4 11 8 22 8 25 1 3 13 37 27 75 15 39 36 97
47 130 10 33 23 69 28 80 5 11 17 46 26 77 16 52 21 59 58 74 23 9 63 18 90
19 54 2 126 -12 126 -26 0 -5 7 -9 15 -9 30 0 138 -115 203 -215 24 -37 136
-270 134 -278 -1 -4 5 -21 13 -37 9 -17 12 -30 8 -30 -5 0 -3 -4 2 -8 9 -6 64
-160 71 -197 1 -5 11 -39 23 -75 11 -36 23 -76 25 -90 3 -14 15 -63 27 -110
12 -47 22 -92 23 -100 1 -9 5 -21 10 -28 4 -6 5 -12 2 -12 -2 0 2 -28 11 -62
8 -35 17 -74 19 -88 2 -14 7 -36 10 -50 3 -14 8 -38 10 -55 2 -16 8 -50 13
-75 6 -25 13 -63 17 -85 3 -22 8 -51 10 -65 2 -14 6 -38 8 -55 3 -16 7 -41 9
-55 5 -22 16 -95 22 -140 1 -8 5 -40 9 -70 3 -30 8 -66 10 -80 5 -26 24 -179
31 -240 2 -19 6 -57 10 -85 4 -27 8 -68 10 -90 3 -43 13 -139 22 -220 6 -54 8
-83 18 -215 4 -47 8 -103 10 -125 3 -38 9 -114 20 -290 10 -152 27 -484 27
-533 0 -37 4 -38 106 -47 35 -3 67 -7 72 -10 10 -6 34 22 35 44 1 10 7 37 13
62 12 46 68 295 76 339 2 14 9 45 15 70 12 53 23 109 25 130 1 9 5 21 10 28 4
6 5 12 2 12 -2 0 0 15 5 33 5 17 11 48 14 67 3 19 7 46 10 60 3 14 8 36 10 50
3 22 14 79 30 160 3 14 8 45 11 70 3 25 10 52 15 61 4 9 6 19 4 21 -3 3 1 40
9 84 8 43 17 99 21 124 3 25 8 54 9 65 9 52 28 193 31 220 2 17 6 44 8 60 8
46 15 99 33 270 3 28 7 66 9 85 3 19 7 68 10 108 3 39 7 100 10 135 3 34 8 98
12 142 8 101 8 845 0 945 -4 41 -8 93 -10 115 -3 22 -7 72 -11 110 -4 39 -11
93 -16 120 -5 28 -12 68 -14 90 -3 22 -8 52 -11 67 -3 16 -7 38 -9 50 -12 63
-37 185 -42 198 -3 8 -6 17 -6 20 0 3 -7 28 -15 55 -9 28 -17 57 -18 65 -2 8
-4 16 -5 18 -2 1 -3 5 -4 10 -7 30 -65 189 -88 241 -16 36 -36 81 -44 100 -9
20 -20 43 -25 51 -5 8 -13 25 -19 37 -5 12 -21 41 -36 65 -15 24 -26 45 -25
47 2 2 -1 7 -6 10 -4 3 -22 26 -38 51 -16 25 -32 47 -35 50 -3 3 -18 23 -34
45 -53 73 -224 232 -313 292 -92 62 -191 113 -245 128 -5 2 -9 3 -10 5 -2 1
-10 3 -18 6 -8 2 -40 10 -70 19 -30 8 -66 17 -79 20 -13 2 -25 5 -26 7 -2 2 3
32 11 68 7 36 16 80 19 97 2 18 9 53 15 78 6 25 12 60 14 78 4 30 10 62 20
112 2 11 7 40 11 65 3 25 9 59 12 75 3 17 6 41 8 55 7 59 17 126 20 140 2 8 7
40 10 70 3 30 9 73 12 95 3 22 7 54 9 70 2 17 5 48 8 70 2 22 7 72 11 110 3
39 8 81 10 95 4 27 16 178 21 250 1 25 3 45 3 45 1 0 4 41 6 90 2 50 7 151 10
225 12 253 7 735 -10 1015 -12 203 -20 310 -24 310 -1 0 -4 27 -5 60 -4 58
-11 127 -22 210 -3 22 -7 56 -9 75 -7 61 -24 183 -31 220 -2 8 -6 35 -9 59 -3
24 -7 46 -9 50 -2 3 -6 31 -10 61 -3 30 -13 89 -21 130 -8 41 -17 86 -19 100
-3 14 -5 27 -6 30 -2 3 -2 8 -1 12 0 3 -6 30 -13 60 -8 29 -17 67 -20 83 -2
17 -8 41 -11 55 -3 14 -8 34 -10 45 -5 28 -13 63 -19 83 -3 9 -8 32 -11 51 -3
19 -8 38 -11 43 -3 4 -7 18 -9 30 -6 32 -26 110 -33 128 -7 19 -7 18 -16 60
-16 71 -138 474 -145 480 -3 3 -7 10 -8 15 -4 25 -67 203 -118 335 -31 80 -57
151 -57 158 -1 6 -5 12 -10 12 -4 0 -7 3 -6 8 0 4 -2 16 -7 27 -11 30 -94 223
-117 275 -11 25 -29 65 -40 90 -66 149 -269 544 -329 643 -16 26 -29 49 -29
51 0 4 -83 145 -115 197 -5 9 -19 32 -29 50 -50 89 -332 514 -363 546 -6 7
-21 29 -34 50 -13 21 -26 40 -29 43 -3 3 -19 23 -36 45 -16 22 -32 44 -37 50
-4 5 -37 48 -73 95 -58 76 -95 121 -144 180 -8 10 -29 35 -47 57 -17 21 -41
49 -53 63 -12 14 -38 45 -58 69 -21 24 -54 62 -74 83 -21 21 -38 41 -38 43 0
14 -381 399 -520 525 -51 47 -98 90 -104 95 -6 6 -38 32 -71 59 -33 27 -67 56
-75 65 -36 37 -58 41 -226 41 l-166 0 48 -46z"/>
</g>
</svg>
